<svg width="170" height="40" viewBox="0 0 170 40" fill="none" xmlns="http://www.w3.org/2000/svg">
  <rect width="170" height="40" rx="8" fill="white"/>
  <ellipse cx="28" cy="20" rx="20" ry="14" fill="#009EE3"/>
  <path d="M16.5 19.4C18.4 17.7 20.5 17.1 22.9 17.6C24.2 17.9 25.3 18.5 26.2 19.3C27 20 27.8 20.3 28.6 20.2C29.5 20.1 30.2 19.7 31 19C32.2 17.9 33.6 17.3 35.2 17.4C36.9 17.5 38.4 18.3 39.8 19.8" stroke="#FFE600" stroke-width="2.2" stroke-linecap="round"/>
  <path d="M16.2 20.6C17.9 22.2 19.9 23 22.4 22.8C24 22.7 25.4 22.1 26.6 21.1C27.4 20.5 28.2 20.3 29 20.5C29.8 20.7 30.4 21.2 31.1 21.8C32.3 22.9 33.7 23.4 35.4 23.2C37.1 23 38.7 22.2 40.1 20.7" stroke="#FFE600" stroke-width="2.2" stroke-linecap="round"/>
  <text x="56" y="17" fill="#009EE3" font-family="Arial, sans-serif" font-size="11" font-weight="700">mercado</text>
  <text x="56" y="30" fill="#009EE3" font-family="Arial, sans-serif" font-size="11" font-weight="700">pago</text>
</svg>