<svg width="120" height="40" viewBox="0 0 120 40" fill="none" xmlns="http://www.w3.org/2000/svg">
  <rect width="120" height="40" rx="8" fill="white"/>
  <path d="M28.39 27L31.95 13H37.63L34.07 27H28.39Z" fill="#1A1F71"/>
  <path d="M52.44 13.34C51.32 12.92 49.55 12.46 47.37 12.46C41.81 12.46 37.89 15.45 37.86 19.72C37.82 22.88 40.7 24.64 42.87 25.7C45.11 26.79 45.87 27.48 45.86 28.43C45.85 29.9 44.09 30.57 42.45 30.57C40.18 30.57 38.97 30.23 37.11 29.42L36.36 29.07L35.56 34.08C36.88 34.69 39.34 35.21 41.9 35.24C47.8 35.24 51.65 32.29 51.69 27.74C51.71 25.23 50.21 23.32 46.95 21.74C44.98 20.74 43.77 20.08 43.78 19.09C43.78 18.21 44.75 17.27 46.84 17.27C48.56 17.24 49.82 17.66 50.78 18.08L51.25 18.29L52.44 13.34Z" fill="#1A1F71"/>
  <path d="M60.94 22.04C61.41 20.76 63.22 15.66 63.22 15.66C63.19 15.72 63.69 14.35 63.97 13.49L64.41 15.47C64.41 15.47 65.62 21.33 65.87 22.04H60.94ZM68.18 13H63.77C62.41 13 61.4 13.4 60.8 14.84L52.35 35H58.24C58.24 35 59.22 32.28 59.44 31.69C60.08 31.69 65.77 31.7 66.58 31.7C66.74 32.46 67.22 35 67.22 35H72.42L68.18 13Z" fill="#1A1F71"/>
  <path d="M24.58 13L19.02 27.31L18.43 24.28C17.4 20.73 14.19 16.88 10.59 14.95L15.68 34.97L21.61 34.96L30.43 13H24.58Z" fill="#1A1F71"/>
  <path d="M13.93 13H4.9L4.83 13.44C11.86 15.28 16.52 19.73 18.43 24.27L16.49 14.88C16.16 13.43 15.18 13.05 13.93 13Z" fill="#F7A600"/>
</svg>